<svg xmlns="http://www.w3.org/2000/svg" viewBox="0 0 71.86 104.52"><defs><style>.cls-1{fill:#331b4b;}</style></defs><title>phone</title><g id="Layer_2" data-name="Layer 2"><g id="Layer_1-2" data-name="Layer 1"><path class="cls-1" d="M64.16,0H7.7C3.45,0,0,4.39,0,9.8V94.72c0,5.41,3.45,9.8,7.7,9.8H64.16c4.25,0,7.7-4.39,7.7-9.8V9.8C71.86,4.39,68.41,0,64.16,0ZM35.93,98c-2.84,0-5.13-2.92-5.13-6.53s2.29-6.54,5.13-6.54,5.13,2.92,5.13,6.54S38.77,98,35.93,98Zm28.23-22a2.24,2.24,0,0,1-1.93,2.45H9.62A2.24,2.24,0,0,1,7.7,75.94V12.25A2.24,2.24,0,0,1,9.62,9.8H62.23a2.24,2.24,0,0,1,1.93,2.45Z"/></g></g></svg>