<svg xmlns="http://www.w3.org/2000/svg" viewBox="0 0 92.1 105.26"><defs><style>.cls-1{fill:#331b4b;}</style></defs><title>book</title><g id="Layer_2" data-name="Layer 2"><g id="Layer_1-2" data-name="Layer 1"><path class="cls-1" d="M83.34,8.76V70.18H19.74a15.29,15.29,0,0,0-11,4.63V19.74a11,11,0,0,1,11-11h63.6M18.63,36.18a10,10,0,0,0-1.08,4.52v4.12a10,10,0,0,0,10,10H71.13a10,10,0,0,0,10-10V40.7A9.86,9.86,0,0,0,80,36.18a9.83,9.83,0,0,0,1.09-4.52V27.55a10,10,0,0,0-10-10H27.55a10,10,0,0,0-10,10v4.11a9.94,9.94,0,0,0,1.08,4.52M87.16,0H19.74A19.74,19.74,0,0,0,0,19.74V85.52a19.74,19.74,0,0,0,19.74,19.74H87.16a4.93,4.93,0,0,0,4.94-4.94V97a5,5,0,0,0-1.83-3.84c-.86-3.17-.86-12.19,0-15.36A4.89,4.89,0,0,0,92.1,74V4.93A4.92,4.92,0,0,0,87.16,0ZM27.55,32.89a1.24,1.24,0,0,1-1.24-1.23V27.55a1.25,1.25,0,0,1,1.24-1.24H71.13a1.24,1.24,0,0,1,1.23,1.24v4.11a1.23,1.23,0,0,1-1.23,1.23Zm0,13.16a1.24,1.24,0,0,1-1.24-1.23V40.7a1.24,1.24,0,0,1,1.24-1.23H71.13a1.24,1.24,0,0,1,1.23,1.23v4.12a1.24,1.24,0,0,1-1.23,1.23ZM19.74,92.1a6.58,6.58,0,0,1,0-13.16H78.41a74.16,74.16,0,0,0,0,13.16ZM92.1,74Zm0,0Z"/></g></g></svg>